<svg id="svg" version="1.1" xmlns="http://www.w3.org/2000/svg" xmlns:xlink="http://www.w3.org/1999/xlink" width="400" height="400" viewBox="0, 0, 400,400"><g id="svgg"><path id="path0" d="M297.515 44.501 C 297.165 44.775,294.926 47.861,292.540 51.358 C 290.153 54.855,287.142 59.265,285.850 61.158 C 284.557 63.051,279.427 70.592,274.450 77.916 C 269.472 85.240,263.417 94.150,260.993 97.716 C 258.569 101.282,254.508 107.260,251.968 111.000 C 249.429 114.740,246.537 118.970,245.543 120.400 C 244.549 121.830,240.876 127.230,237.380 132.400 C 233.885 137.570,229.544 143.960,227.734 146.600 C 217.905 160.936,214.799 165.674,215.008 166.013 C 215.136 166.219,215.428 167.426,215.657 168.694 C 216.226 171.842,216.559 173.504,217.600 178.400 C 218.091 180.710,218.635 183.320,218.809 184.200 C 218.984 185.080,219.322 186.790,219.562 188.000 C 219.802 189.210,220.179 191.010,220.400 192.000 C 220.776 193.682,221.243 195.984,221.985 199.800 C 222.572 202.822,227.589 227.400,227.802 228.301 C 227.933 228.851,228.831 229.671,230.108 230.407 C 231.259 231.070,234.360 233.026,237.000 234.754 C 239.640 236.482,245.400 240.197,249.800 243.009 C 254.200 245.821,260.230 249.686,263.200 251.597 C 266.170 253.509,272.200 257.372,276.600 260.182 C 281.000 262.992,286.760 266.687,289.400 268.393 C 295.026 272.030,306.537 279.411,317.800 286.603 C 322.200 289.412,328.230 293.277,331.200 295.192 C 337.543 299.282,345.647 304.475,348.908 306.539 C 353.257 309.292,353.710 308.572,352.224 301.275 C 351.611 298.264,350.934 294.900,350.720 293.800 C 349.976 289.986,349.689 288.579,348.800 284.400 C 348.309 282.090,347.765 279.480,347.591 278.600 C 347.416 277.720,347.078 276.010,346.838 274.800 C 346.598 273.590,346.221 271.790,346.000 270.800 C 345.779 269.810,345.427 268.100,345.218 267.000 C 345.009 265.900,344.283 262.390,343.605 259.200 C 342.928 256.010,342.223 252.590,342.039 251.600 C 339.706 239.028,338.198 232.529,337.434 231.758 C 336.975 231.295,332.370 228.436,327.200 225.405 C 322.030 222.374,317.129 219.468,316.309 218.947 C 315.488 218.426,314.706 218.000,314.570 218.000 C 314.435 218.000,313.846 217.661,313.262 217.247 C 312.271 216.544,311.633 216.167,307.700 213.957 C 306.875 213.494,306.020 212.973,305.800 212.800 C 305.427 212.507,291.114 204.063,288.000 202.299 C 287.230 201.863,286.122 201.167,285.538 200.753 C 284.954 200.339,284.365 200.000,284.230 200.000 C 284.094 200.000,283.312 199.573,282.491 199.050 C 281.671 198.528,278.300 196.525,275.000 194.599 C 267.070 189.972,265.200 188.785,265.200 188.376 C 265.200 187.964,266.813 185.673,272.600 177.861 C 281.252 166.184,289.051 155.622,292.181 151.346 C 295.651 146.605,302.926 136.765,309.814 127.498 C 315.298 120.119,315.168 120.362,314.741 118.286 C 314.551 117.359,314.237 115.790,314.044 114.800 C 313.850 113.810,313.110 110.210,312.398 106.800 C 311.687 103.390,310.966 99.880,310.796 99.000 C 310.627 98.120,310.268 96.410,310.000 95.200 C 309.732 93.990,309.379 92.280,309.215 91.400 C 309.052 90.520,307.521 82.960,305.814 74.600 C 304.107 66.240,302.055 56.182,301.255 52.248 C 299.707 44.638,299.056 43.290,297.515 44.501 M48.031 94.562 C 47.671 94.997,47.807 96.291,48.633 100.262 C 49.221 103.088,49.837 106.120,50.003 107.000 C 50.169 107.880,50.887 111.390,51.598 114.800 C 52.310 118.210,53.050 121.810,53.244 122.800 C 53.437 123.790,53.777 125.410,53.999 126.400 C 54.373 128.070,54.811 130.225,55.586 134.200 C 59.121 152.346,62.993 170.358,63.454 170.799 C 63.748 171.080,70.125 174.873,74.240 177.214 C 74.923 177.602,76.813 178.720,78.440 179.699 C 81.399 181.478,85.503 183.886,87.840 185.214 C 88.523 185.602,90.413 186.719,92.040 187.695 C 93.668 188.672,97.700 191.054,101.000 192.989 C 104.300 194.924,107.671 196.933,108.491 197.454 C 109.312 197.974,110.089 198.400,110.219 198.400 C 110.349 198.400,111.208 198.913,112.128 199.541 C 113.048 200.168,113.984 200.753,114.209 200.841 C 114.434 200.928,116.864 202.333,119.609 203.963 C 122.354 205.592,127.173 208.443,130.319 210.299 C 134.286 212.640,135.929 213.815,135.685 214.137 C 135.492 214.391,134.178 216.216,132.767 218.191 C 131.355 220.166,128.850 223.608,127.200 225.841 C 125.550 228.073,122.769 231.857,121.021 234.250 C 119.272 236.642,116.649 240.220,115.192 242.200 C 113.735 244.180,110.126 249.107,107.172 253.148 C 104.217 257.190,100.720 261.959,99.400 263.747 C 84.806 283.510,85.796 281.714,86.798 286.600 C 86.978 287.480,87.322 289.190,87.562 290.400 C 87.802 291.610,88.179 293.410,88.401 294.400 C 88.623 295.390,88.963 297.010,89.156 298.000 C 89.513 299.826,89.887 301.653,94.634 324.800 C 96.100 331.950,97.438 338.520,97.606 339.400 C 97.775 340.280,98.132 341.990,98.400 343.200 C 98.668 344.410,99.031 346.120,99.207 347.000 C 100.066 351.309,100.499 353.540,100.761 355.015 C 101.568 359.563,102.927 358.888,107.861 351.490 C 111.540 345.973,123.000 329.014,139.816 304.200 C 143.245 299.140,151.158 287.440,157.401 278.200 C 174.407 253.028,181.247 242.925,183.536 239.600 L 185.600 236.600 185.163 234.200 C 184.565 230.918,184.239 229.287,183.202 224.400 C 182.711 222.090,182.135 219.300,181.920 218.200 C 181.172 214.366,180.887 212.973,180.000 208.800 C 179.509 206.490,178.965 203.880,178.791 203.000 C 178.616 202.120,178.278 200.410,178.038 199.200 C 177.798 197.990,177.421 196.190,177.199 195.200 C 176.977 194.210,176.638 192.590,176.445 191.600 C 176.253 190.610,175.325 185.999,174.384 181.354 L 172.673 172.908 167.436 169.514 C 164.556 167.647,158.600 163.814,154.200 160.995 C 149.800 158.177,143.959 154.415,141.220 152.636 C 138.482 150.856,135.913 149.220,135.513 149.000 C 135.113 148.780,130.334 145.728,124.893 142.217 C 115.099 135.897,109.930 132.575,94.800 122.874 C 75.473 110.482,71.409 107.873,65.400 104.007 C 48.932 93.411,48.970 93.432,48.031 94.562 " stroke="none" fill="#fafbfb" fill-rule="evenodd"></path><path id="path1" d="M172.100 0.281 C 170.505 0.366,169.200 0.607,169.200 0.818 C 169.200 1.028,168.120 1.200,166.800 1.200 C 165.467 1.200,164.400 1.378,164.400 1.600 C 164.400 1.820,163.410 2.000,162.200 2.000 C 160.990 2.000,160.000 2.180,160.000 2.400 C 160.000 2.620,159.280 2.800,158.400 2.800 C 157.520 2.800,156.800 2.980,156.800 3.200 C 156.800 3.420,155.900 3.600,154.800 3.600 C 153.700 3.600,152.800 3.780,152.800 4.000 C 152.800 4.220,152.080 4.400,151.200 4.400 C 150.320 4.400,149.600 4.580,149.600 4.800 C 149.600 5.020,148.970 5.200,148.200 5.200 C 147.430 5.200,146.800 5.380,146.800 5.600 C 146.800 5.820,146.170 6.000,145.400 6.000 C 144.630 6.000,144.000 6.180,144.000 6.400 C 144.000 6.620,143.370 6.800,142.600 6.800 C 141.830 6.800,141.200 6.980,141.200 7.200 C 141.200 7.420,140.660 7.600,140.000 7.600 C 139.340 7.600,138.800 7.780,138.800 8.000 C 138.800 8.220,138.362 8.400,137.828 8.400 C 136.646 8.400,130.253 10.448,130.067 10.887 C 129.993 11.059,129.586 11.200,129.161 11.200 C 128.737 11.200,128.032 11.380,127.595 11.600 C 127.158 11.820,126.442 12.180,126.005 12.400 C 125.568 12.620,124.938 12.800,124.605 12.800 C 124.272 12.800,124.000 12.980,124.000 13.200 C 124.000 13.420,123.561 13.600,123.024 13.600 C 122.487 13.600,121.936 13.780,121.800 14.000 C 121.664 14.220,121.203 14.400,120.776 14.400 C 120.349 14.400,120.000 14.580,120.000 14.800 C 120.000 15.020,119.640 15.200,119.200 15.200 C 118.760 15.200,118.400 15.380,118.400 15.600 C 118.400 15.820,118.040 16.000,117.600 16.000 C 117.160 16.000,116.800 16.180,116.800 16.400 C 116.800 16.620,116.465 16.800,116.056 16.800 C 115.254 16.800,110.287 19.205,110.067 19.700 C 109.993 19.865,109.588 20.000,109.167 20.000 C 108.745 20.000,108.400 20.180,108.400 20.400 C 108.400 20.620,108.040 20.800,107.600 20.800 C 107.160 20.800,106.800 20.980,106.800 21.200 C 106.800 21.420,106.480 21.600,106.088 21.600 C 105.697 21.600,105.117 21.960,104.800 22.400 C 104.483 22.840,103.903 23.200,103.512 23.200 C 103.120 23.200,102.800 23.380,102.800 23.600 C 102.800 23.820,102.440 24.000,102.000 24.000 C 101.560 24.000,101.200 24.180,101.200 24.400 C 101.200 24.620,100.851 24.800,100.424 24.800 C 99.997 24.800,99.543 24.968,99.416 25.174 C 99.289 25.380,98.198 26.031,96.992 26.621 C 95.787 27.211,94.800 27.809,94.800 27.949 C 94.800 28.090,94.215 28.460,93.500 28.772 C 92.785 29.084,91.909 29.668,91.553 30.070 C 91.197 30.471,90.652 30.800,90.341 30.800 C 90.031 30.800,89.517 31.160,89.200 31.600 C 88.883 32.040,88.343 32.400,88.000 32.400 C 87.657 32.400,87.117 32.760,86.800 33.200 C 86.483 33.640,85.975 34.000,85.672 34.000 C 85.369 34.000,84.617 34.540,84.000 35.200 C 83.383 35.860,82.631 36.400,82.328 36.400 C 82.025 36.400,81.517 36.760,81.200 37.200 C 80.883 37.640,80.393 38.000,80.112 38.000 C 79.830 38.000,79.600 38.180,79.600 38.400 C 79.600 38.620,79.402 38.800,79.160 38.800 C 78.919 38.800,78.217 39.340,77.600 40.000 C 76.983 40.660,76.364 41.200,76.223 41.200 C 75.940 41.200,75.263 41.731,73.799 43.100 C 73.270 43.595,72.666 44.000,72.459 44.000 C 72.251 44.000,71.162 44.900,70.039 46.000 C 68.915 47.100,67.839 48.000,67.648 48.000 C 67.456 48.000,65.342 49.972,62.950 52.382 C 60.557 54.792,58.189 57.177,57.687 57.682 C 57.186 58.187,55.161 60.186,53.187 62.125 C 51.214 64.063,49.600 65.817,49.600 66.022 C 49.600 66.227,48.520 67.492,47.200 68.832 C 45.880 70.173,44.800 71.458,44.800 71.688 C 44.800 71.918,44.476 72.397,44.079 72.753 C 43.683 73.109,42.830 74.120,42.184 75.000 C 41.538 75.880,40.692 76.891,40.304 77.247 C 39.917 77.603,39.600 78.098,39.600 78.347 C 39.600 78.596,39.420 78.800,39.200 78.800 C 38.980 78.800,38.800 79.030,38.800 79.312 C 38.800 79.593,38.440 80.083,38.000 80.400 C 37.560 80.717,37.200 81.209,37.200 81.492 C 37.200 81.775,36.660 82.572,36.000 83.263 C 35.340 83.954,34.800 84.722,34.800 84.971 C 34.800 85.220,34.440 85.683,34.000 86.000 C 33.560 86.317,33.200 86.857,33.200 87.200 C 33.200 87.543,32.840 88.083,32.400 88.400 C 31.960 88.717,31.600 89.214,31.600 89.505 C 31.600 89.796,31.240 90.420,30.800 90.892 C 30.360 91.364,30.000 91.987,30.000 92.275 C 30.000 92.564,29.820 92.800,29.600 92.800 C 29.380 92.800,29.200 93.070,29.200 93.400 C 29.200 93.730,29.048 94.000,28.863 94.000 C 28.677 94.000,28.095 94.855,27.568 95.900 C 27.042 96.945,26.504 97.890,26.374 98.000 C 25.960 98.349,24.800 100.901,24.800 101.461 C 24.800 101.758,24.620 102.000,24.400 102.000 C 24.180 102.000,24.000 102.360,24.000 102.800 C 24.000 103.240,23.820 103.600,23.600 103.600 C 23.380 103.600,23.200 103.960,23.200 104.400 C 23.200 104.840,23.020 105.200,22.800 105.200 C 22.580 105.200,22.400 105.520,22.400 105.912 C 22.400 106.303,22.040 106.883,21.600 107.200 C 21.160 107.517,20.800 108.097,20.800 108.488 C 20.800 108.880,20.620 109.200,20.400 109.200 C 20.180 109.200,20.000 109.560,20.000 110.000 C 20.000 110.440,19.820 110.800,19.600 110.800 C 19.380 110.800,19.200 111.160,19.200 111.600 C 19.200 112.040,19.020 112.400,18.800 112.400 C 18.580 112.400,18.400 112.850,18.400 113.400 C 18.400 113.950,18.220 114.400,18.000 114.400 C 17.780 114.400,17.600 114.760,17.600 115.200 C 17.600 115.640,17.420 116.000,17.200 116.000 C 16.980 116.000,16.800 116.360,16.800 116.800 C 16.800 117.240,16.620 117.600,16.400 117.600 C 16.180 117.600,16.000 117.949,16.000 118.376 C 16.000 118.803,15.820 119.264,15.600 119.400 C 15.380 119.536,15.200 120.087,15.200 120.624 C 15.200 121.161,15.020 121.600,14.800 121.600 C 14.580 121.600,14.400 121.960,14.400 122.400 C 14.400 122.840,14.220 123.200,14.000 123.200 C 13.780 123.200,13.600 123.740,13.600 124.400 C 13.600 125.060,13.420 125.600,13.200 125.600 C 12.980 125.600,12.800 125.960,12.800 126.400 C 12.800 126.840,12.620 127.200,12.400 127.200 C 12.180 127.200,12.000 127.639,12.000 128.176 C 12.000 128.713,11.820 129.264,11.600 129.400 C 11.380 129.536,11.200 130.072,11.200 130.590 C 11.200 131.109,11.059 131.593,10.887 131.667 C 10.370 131.887,8.400 138.351,8.400 139.828 C 8.400 140.582,8.220 141.200,8.000 141.200 C 7.780 141.200,7.600 141.639,7.600 142.176 C 7.600 142.713,7.420 143.264,7.200 143.400 C 6.980 143.536,6.800 144.267,6.800 145.024 C 6.800 145.781,6.620 146.400,6.400 146.400 C 6.180 146.400,6.000 146.929,6.000 147.576 C 6.000 148.223,5.820 148.864,5.600 149.000 C 5.380 149.136,5.200 149.856,5.200 150.600 C 5.200 151.344,5.020 152.064,4.800 152.200 C 4.580 152.336,4.400 153.247,4.400 154.224 C 4.400 155.201,4.220 156.000,4.000 156.000 C 3.780 156.000,3.600 156.799,3.600 157.776 C 3.600 158.753,3.420 159.664,3.200 159.800 C 2.980 159.936,2.800 160.847,2.800 161.824 C 2.800 162.801,2.620 163.600,2.400 163.600 C 2.178 163.600,2.000 164.667,2.000 166.000 C 2.000 167.333,1.822 168.400,1.600 168.400 C 1.373 168.400,1.200 169.573,1.200 171.120 C 1.200 172.763,1.002 174.038,0.700 174.340 C -0.029 175.069,-0.029 224.131,0.700 224.860 C 1.002 225.162,1.200 226.437,1.200 228.080 C 1.200 229.627,1.373 230.800,1.600 230.800 C 1.822 230.800,2.000 231.867,2.000 233.200 C 2.000 234.533,2.178 235.600,2.400 235.600 C 2.620 235.600,2.800 236.500,2.800 237.600 C 2.800 238.700,2.980 239.600,3.200 239.600 C 3.420 239.600,3.600 240.410,3.600 241.400 C 3.600 242.390,3.780 243.200,4.000 243.200 C 4.220 243.200,4.400 243.999,4.400 244.976 C 4.400 245.953,4.580 246.864,4.800 247.000 C 5.020 247.136,5.200 247.856,5.200 248.600 C 5.200 249.344,5.380 250.064,5.600 250.200 C 5.820 250.336,6.000 250.977,6.000 251.624 C 6.000 252.271,6.180 252.800,6.400 252.800 C 6.620 252.800,6.800 253.520,6.800 254.400 C 6.800 255.280,6.980 256.000,7.200 256.000 C 7.420 256.000,7.600 256.450,7.600 257.000 C 7.600 257.550,7.780 258.000,8.000 258.000 C 8.220 258.000,8.400 258.618,8.400 259.372 C 8.400 260.849,10.370 267.313,10.887 267.533 C 11.059 267.607,11.200 268.192,11.200 268.833 C 11.200 269.475,11.380 270.000,11.600 270.000 C 11.820 270.000,12.000 270.355,12.000 270.788 C 12.000 271.221,12.360 272.217,12.800 273.000 C 13.240 273.783,13.600 274.779,13.600 275.212 C 13.600 275.645,13.780 276.000,14.000 276.000 C 14.220 276.000,14.400 276.360,14.400 276.800 C 14.400 277.240,14.580 277.600,14.800 277.600 C 15.020 277.600,15.200 278.039,15.200 278.576 C 15.200 279.113,15.380 279.664,15.600 279.800 C 15.820 279.936,16.000 280.397,16.000 280.824 C 16.000 281.251,16.180 281.600,16.400 281.600 C 16.620 281.600,16.800 281.960,16.800 282.400 C 16.800 282.840,16.980 283.200,17.200 283.200 C 17.420 283.200,17.600 283.560,17.600 284.000 C 17.600 284.440,17.780 284.800,18.000 284.800 C 18.220 284.800,18.400 285.250,18.400 285.800 C 18.400 286.350,18.580 286.800,18.800 286.800 C 19.020 286.800,19.200 287.160,19.200 287.600 C 19.200 288.040,19.380 288.400,19.600 288.400 C 19.820 288.400,20.000 288.760,20.000 289.200 C 20.000 289.640,20.180 290.000,20.400 290.000 C 20.620 290.000,20.800 290.360,20.800 290.800 C 20.800 291.240,20.980 291.600,21.200 291.600 C 21.420 291.600,21.600 291.920,21.600 292.312 C 21.600 292.703,21.960 293.283,22.400 293.600 C 22.840 293.917,23.200 294.497,23.200 294.888 C 23.200 295.280,23.380 295.600,23.600 295.600 C 23.820 295.600,24.000 295.960,24.000 296.400 C 24.000 296.840,24.180 297.200,24.400 297.200 C 24.620 297.200,24.800 297.442,24.800 297.739 C 24.800 298.299,25.960 300.851,26.374 301.200 C 26.504 301.310,27.042 302.255,27.568 303.300 C 28.095 304.345,28.634 305.200,28.765 305.200 C 28.897 305.200,29.229 305.706,29.503 306.325 C 29.776 306.944,30.360 307.836,30.800 308.308 C 31.240 308.780,31.600 309.404,31.600 309.695 C 31.600 309.986,31.960 310.483,32.400 310.800 C 32.840 311.117,33.200 311.657,33.200 312.000 C 33.200 312.343,33.560 312.883,34.000 313.200 C 34.440 313.517,34.800 313.980,34.800 314.229 C 34.800 314.478,35.340 315.246,36.000 315.937 C 36.660 316.628,37.200 317.425,37.200 317.708 C 37.200 317.991,37.560 318.483,38.000 318.800 C 38.440 319.117,38.800 319.607,38.800 319.888 C 38.800 320.170,38.980 320.400,39.200 320.400 C 39.420 320.400,39.600 320.604,39.600 320.853 C 39.600 321.102,39.917 321.597,40.304 321.953 C 40.692 322.309,41.538 323.320,42.184 324.200 C 42.830 325.080,43.683 326.091,44.079 326.447 C 44.476 326.803,44.800 327.279,44.800 327.506 C 44.800 327.733,45.700 328.838,46.800 329.961 C 47.900 331.085,48.800 332.161,48.800 332.352 C 48.800 332.544,50.768 334.658,53.173 337.050 C 58.475 342.323,57.677 341.525,62.950 346.827 C 65.342 349.232,67.456 351.200,67.648 351.200 C 67.839 351.200,68.915 352.100,70.039 353.200 C 71.162 354.300,72.249 355.200,72.454 355.200 C 72.659 355.200,73.457 355.830,74.227 356.600 C 74.997 357.370,75.774 358.000,75.954 358.000 C 76.134 358.000,76.846 358.540,77.537 359.200 C 78.228 359.860,78.974 360.400,79.196 360.400 C 79.418 360.400,79.600 360.580,79.600 360.800 C 79.600 361.020,79.830 361.200,80.112 361.200 C 80.393 361.200,80.883 361.560,81.200 362.000 C 81.517 362.440,82.025 362.800,82.328 362.800 C 82.631 362.800,83.383 363.340,84.000 364.000 C 84.617 364.660,85.369 365.200,85.672 365.200 C 85.975 365.200,86.483 365.560,86.800 366.000 C 87.117 366.440,87.657 366.800,88.000 366.800 C 88.343 366.800,88.883 367.160,89.200 367.600 C 89.517 368.040,90.031 368.400,90.341 368.400 C 90.652 368.400,91.197 368.716,91.553 369.103 C 91.909 369.489,92.740 370.074,93.400 370.403 C 94.060 370.731,94.949 371.315,95.375 371.700 C 95.802 372.085,96.387 372.400,96.675 372.400 C 96.964 372.400,97.200 372.580,97.200 372.800 C 97.200 373.020,97.560 373.200,98.000 373.200 C 98.440 373.200,98.800 373.347,98.800 373.526 C 98.800 373.924,101.401 375.200,102.214 375.200 C 102.536 375.200,102.800 375.380,102.800 375.600 C 102.800 375.820,103.120 376.000,103.512 376.000 C 103.903 376.000,104.483 376.360,104.800 376.800 C 105.117 377.240,105.697 377.600,106.088 377.600 C 106.480 377.600,106.800 377.780,106.800 378.000 C 106.800 378.220,107.160 378.400,107.600 378.400 C 108.040 378.400,108.400 378.580,108.400 378.800 C 108.400 379.020,108.745 379.200,109.167 379.200 C 109.588 379.200,109.993 379.335,110.067 379.500 C 110.287 379.995,115.254 382.400,116.056 382.400 C 116.465 382.400,116.800 382.580,116.800 382.800 C 116.800 383.020,117.160 383.200,117.600 383.200 C 118.040 383.200,118.400 383.380,118.400 383.600 C 118.400 383.820,118.760 384.000,119.200 384.000 C 119.640 384.000,120.000 384.180,120.000 384.400 C 120.000 384.620,120.349 384.800,120.776 384.800 C 121.203 384.800,121.664 384.980,121.800 385.200 C 121.936 385.420,122.487 385.600,123.024 385.600 C 123.561 385.600,124.000 385.780,124.000 386.000 C 124.000 386.220,124.360 386.400,124.800 386.400 C 125.240 386.400,125.600 386.580,125.600 386.800 C 125.600 387.020,126.039 387.200,126.576 387.200 C 127.113 387.200,127.664 387.380,127.800 387.600 C 127.936 387.820,128.487 388.000,129.024 388.000 C 129.561 388.000,130.000 388.141,130.000 388.313 C 130.000 388.485,130.855 388.875,131.900 389.180 C 132.945 389.485,134.070 389.868,134.400 390.030 C 135.538 390.591,139.294 391.600,140.246 391.600 C 140.771 391.600,141.200 391.780,141.200 392.000 C 141.200 392.220,141.830 392.400,142.600 392.400 C 143.370 392.400,144.000 392.580,144.000 392.800 C 144.000 393.020,144.529 393.200,145.176 393.200 C 145.823 393.200,146.464 393.380,146.600 393.600 C 146.736 393.820,147.467 394.000,148.224 394.000 C 148.981 394.000,149.600 394.180,149.600 394.400 C 149.600 394.620,150.320 394.800,151.200 394.800 C 152.080 394.800,152.800 394.980,152.800 395.200 C 152.800 395.420,153.700 395.600,154.800 395.600 C 155.900 395.600,156.800 395.780,156.800 396.000 C 156.800 396.220,157.520 396.400,158.400 396.400 C 159.280 396.400,160.000 396.580,160.000 396.800 C 160.000 397.020,160.990 397.200,162.200 397.200 C 163.410 397.200,164.400 397.380,164.400 397.600 C 164.400 397.822,165.467 398.000,166.800 398.000 C 168.133 398.000,169.200 398.178,169.200 398.400 C 169.200 398.628,170.389 398.800,171.967 398.800 C 173.824 398.800,174.788 398.964,174.900 399.300 C 175.031 399.693,180.409 399.800,200.000 399.800 C 219.591 399.800,224.969 399.693,225.100 399.300 C 225.212 398.964,226.176 398.800,228.033 398.800 C 229.611 398.800,230.800 398.628,230.800 398.400 C 230.800 398.178,231.867 398.000,233.200 398.000 C 234.533 398.000,235.600 397.822,235.600 397.600 C 235.600 397.380,236.590 397.200,237.800 397.200 C 239.010 397.200,240.000 397.020,240.000 396.800 C 240.000 396.580,240.720 396.400,241.600 396.400 C 242.480 396.400,243.200 396.220,243.200 396.000 C 243.200 395.780,244.100 395.600,245.200 395.600 C 246.300 395.600,247.200 395.420,247.200 395.200 C 247.200 394.980,247.920 394.800,248.800 394.800 C 249.680 394.800,250.400 394.620,250.400 394.400 C 250.400 394.180,251.019 394.000,251.776 394.000 C 252.533 394.000,253.264 393.820,253.400 393.600 C 253.536 393.380,254.177 393.200,254.824 393.200 C 255.471 393.200,256.000 393.020,256.000 392.800 C 256.000 392.580,256.630 392.400,257.400 392.400 C 258.170 392.400,258.800 392.220,258.800 392.000 C 258.800 391.780,259.229 391.600,259.754 391.600 C 260.706 391.600,264.462 390.591,265.600 390.030 C 265.930 389.868,267.055 389.485,268.100 389.180 C 269.145 388.875,270.000 388.485,270.000 388.313 C 270.000 388.141,270.439 388.000,270.976 388.000 C 271.513 388.000,272.064 387.820,272.200 387.600 C 272.336 387.380,272.887 387.200,273.424 387.200 C 273.961 387.200,274.400 387.020,274.400 386.800 C 274.400 386.580,274.760 386.400,275.200 386.400 C 275.640 386.400,276.000 386.220,276.000 386.000 C 276.000 385.780,276.439 385.600,276.976 385.600 C 277.513 385.600,278.064 385.420,278.200 385.200 C 278.336 384.980,278.797 384.800,279.224 384.800 C 279.651 384.800,280.000 384.620,280.000 384.400 C 280.000 384.180,280.360 384.000,280.800 384.000 C 281.240 384.000,281.600 383.820,281.600 383.600 C 281.600 383.380,281.960 383.200,282.400 383.200 C 282.840 383.200,283.200 383.020,283.200 382.800 C 283.200 382.580,283.535 382.400,283.944 382.400 C 284.746 382.400,289.713 379.995,289.933 379.500 C 290.007 379.335,290.412 379.200,290.833 379.200 C 291.255 379.200,291.600 379.020,291.600 378.800 C 291.600 378.580,291.960 378.400,292.400 378.400 C 292.840 378.400,293.200 378.220,293.200 378.000 C 293.200 377.780,293.520 377.600,293.912 377.600 C 294.303 377.600,294.883 377.240,295.200 376.800 C 295.517 376.360,296.097 376.000,296.488 376.000 C 296.880 376.000,297.200 375.820,297.200 375.600 C 297.200 375.380,297.491 375.200,297.846 375.200 C 298.562 375.200,302.523 373.174,302.733 372.700 C 302.807 372.535,303.088 372.400,303.358 372.400 C 303.628 372.400,304.198 372.085,304.625 371.700 C 305.051 371.315,305.940 370.731,306.600 370.403 C 307.260 370.074,308.091 369.489,308.447 369.103 C 308.803 368.716,309.348 368.400,309.659 368.400 C 309.969 368.400,310.483 368.040,310.800 367.600 C 311.117 367.160,311.657 366.800,312.000 366.800 C 312.343 366.800,312.883 366.440,313.200 366.000 C 313.517 365.560,314.025 365.200,314.328 365.200 C 314.631 365.200,315.383 364.660,316.000 364.000 C 316.617 363.340,317.369 362.800,317.672 362.800 C 317.975 362.800,318.483 362.440,318.800 362.000 C 319.117 361.560,319.607 361.200,319.888 361.200 C 320.170 361.200,320.400 361.020,320.400 360.800 C 320.400 360.580,320.630 360.400,320.912 360.400 C 321.193 360.400,321.683 360.040,322.000 359.600 C 322.317 359.160,322.724 358.800,322.905 358.800 C 323.247 358.800,323.588 358.539,325.651 356.700 C 326.329 356.095,327.018 355.600,327.180 355.600 C 327.343 355.600,328.498 354.610,329.747 353.400 C 330.996 352.190,332.172 351.200,332.360 351.200 C 332.547 351.200,334.658 349.232,337.050 346.827 C 342.323 341.525,341.525 342.323,346.827 337.050 C 349.232 334.658,351.200 332.544,351.200 332.352 C 351.200 332.161,352.100 331.085,353.200 329.961 C 354.300 328.838,355.200 327.751,355.200 327.546 C 355.200 327.341,355.830 326.543,356.600 325.773 C 357.370 325.003,358.000 324.226,358.000 324.046 C 358.000 323.866,358.540 323.154,359.200 322.463 C 359.860 321.772,360.400 321.026,360.400 320.804 C 360.400 320.582,360.580 320.400,360.800 320.400 C 361.020 320.400,361.200 320.170,361.200 319.888 C 361.200 319.607,361.560 319.117,362.000 318.800 C 362.440 318.483,362.800 317.991,362.800 317.708 C 362.800 317.425,363.340 316.628,364.000 315.937 C 364.660 315.246,365.200 314.478,365.200 314.229 C 365.200 313.980,365.560 313.517,366.000 313.200 C 366.440 312.883,366.800 312.343,366.800 312.000 C 366.800 311.657,367.160 311.117,367.600 310.800 C 368.040 310.483,368.400 309.986,368.400 309.695 C 368.400 309.404,368.760 308.780,369.200 308.308 C 369.640 307.836,370.224 306.944,370.497 306.325 C 370.771 305.706,371.103 305.200,371.235 305.200 C 371.366 305.200,371.905 304.345,372.432 303.300 C 372.958 302.255,373.496 301.310,373.626 301.200 C 374.040 300.851,375.200 298.299,375.200 297.739 C 375.200 297.442,375.380 297.200,375.600 297.200 C 375.820 297.200,376.000 296.840,376.000 296.400 C 376.000 295.960,376.180 295.600,376.400 295.600 C 376.620 295.600,376.800 295.280,376.800 294.888 C 376.800 294.497,377.160 293.917,377.600 293.600 C 378.040 293.283,378.400 292.703,378.400 292.312 C 378.400 291.920,378.580 291.600,378.800 291.600 C 379.020 291.600,379.200 291.240,379.200 290.800 C 379.200 290.360,379.380 290.000,379.600 290.000 C 379.820 290.000,380.000 289.640,380.000 289.200 C 380.000 288.760,380.180 288.400,380.400 288.400 C 380.620 288.400,380.800 288.040,380.800 287.600 C 380.800 287.160,380.980 286.800,381.200 286.800 C 381.420 286.800,381.600 286.350,381.600 285.800 C 381.600 285.250,381.780 284.800,382.000 284.800 C 382.220 284.800,382.400 284.440,382.400 284.000 C 382.400 283.560,382.580 283.200,382.800 283.200 C 383.020 283.200,383.200 282.840,383.200 282.400 C 383.200 281.960,383.380 281.600,383.600 281.600 C 383.820 281.600,384.000 281.251,384.000 280.824 C 384.000 280.397,384.180 279.936,384.400 279.800 C 384.620 279.664,384.800 279.113,384.800 278.576 C 384.800 278.039,384.980 277.600,385.200 277.600 C 385.420 277.600,385.600 277.240,385.600 276.800 C 385.600 276.360,385.780 276.000,386.000 276.000 C 386.220 276.000,386.400 275.645,386.400 275.212 C 386.400 274.779,386.760 273.783,387.200 273.000 C 387.640 272.217,388.000 271.221,388.000 270.788 C 388.000 270.355,388.180 270.000,388.400 270.000 C 388.620 270.000,388.800 269.475,388.800 268.833 C 388.800 268.192,388.941 267.607,389.113 267.533 C 389.630 267.313,391.600 260.849,391.600 259.372 C 391.600 258.618,391.780 258.000,392.000 258.000 C 392.220 258.000,392.400 257.550,392.400 257.000 C 392.400 256.450,392.580 256.000,392.800 256.000 C 393.020 256.000,393.200 255.280,393.200 254.400 C 393.200 253.520,393.380 252.800,393.600 252.800 C 393.820 252.800,394.000 252.271,394.000 251.624 C 394.000 250.977,394.180 250.336,394.400 250.200 C 394.620 250.064,394.800 249.344,394.800 248.600 C 394.800 247.856,394.980 247.136,395.200 247.000 C 395.420 246.864,395.600 245.953,395.600 244.976 C 395.600 243.999,395.780 243.200,396.000 243.200 C 396.220 243.200,396.400 242.390,396.400 241.400 C 396.400 240.410,396.580 239.600,396.800 239.600 C 397.020 239.600,397.200 238.700,397.200 237.600 C 397.200 236.500,397.380 235.600,397.600 235.600 C 397.822 235.600,398.000 234.533,398.000 233.200 C 398.000 231.867,398.178 230.800,398.400 230.800 C 398.627 230.800,398.800 229.627,398.800 228.080 C 398.800 226.437,398.998 225.162,399.300 224.860 C 399.689 224.471,399.800 218.875,399.800 199.600 C 399.800 180.325,399.689 174.729,399.300 174.340 C 398.998 174.038,398.800 172.763,398.800 171.120 C 398.800 169.573,398.627 168.400,398.400 168.400 C 398.178 168.400,398.000 167.333,398.000 166.000 C 398.000 164.667,397.822 163.600,397.600 163.600 C 397.380 163.600,397.200 162.801,397.200 161.824 C 397.200 160.847,397.020 159.936,396.800 159.800 C 396.580 159.664,396.400 158.753,396.400 157.776 C 396.400 156.799,396.220 156.000,396.000 156.000 C 395.780 156.000,395.600 155.201,395.600 154.224 C 395.600 153.247,395.420 152.336,395.200 152.200 C 394.980 152.064,394.800 151.344,394.800 150.600 C 394.800 149.856,394.620 149.136,394.400 149.000 C 394.180 148.864,394.000 148.223,394.000 147.576 C 394.000 146.929,393.820 146.400,393.600 146.400 C 393.380 146.400,393.200 145.781,393.200 145.024 C 393.200 144.267,393.020 143.536,392.800 143.400 C 392.580 143.264,392.400 142.713,392.400 142.176 C 392.400 141.639,392.220 141.200,392.000 141.200 C 391.780 141.200,391.600 140.582,391.600 139.828 C 391.600 138.351,389.630 131.887,389.113 131.667 C 388.941 131.593,388.800 131.109,388.800 130.590 C 388.800 130.072,388.620 129.536,388.400 129.400 C 388.180 129.264,388.000 128.713,388.000 128.176 C 388.000 127.639,387.820 127.200,387.600 127.200 C 387.380 127.200,387.200 126.840,387.200 126.400 C 387.200 125.960,387.020 125.600,386.800 125.600 C 386.580 125.600,386.400 125.060,386.400 124.400 C 386.400 123.740,386.220 123.200,386.000 123.200 C 385.780 123.200,385.600 122.840,385.600 122.400 C 385.600 121.960,385.420 121.600,385.200 121.600 C 384.980 121.600,384.800 121.161,384.800 120.624 C 384.800 120.087,384.620 119.536,384.400 119.400 C 384.180 119.264,384.000 118.803,384.000 118.376 C 384.000 117.949,383.820 117.600,383.600 117.600 C 383.380 117.600,383.200 117.240,383.200 116.800 C 383.200 116.360,383.020 116.000,382.800 116.000 C 382.580 116.000,382.400 115.640,382.400 115.200 C 382.400 114.760,382.220 114.400,382.000 114.400 C 381.780 114.400,381.600 113.950,381.600 113.400 C 381.600 112.850,381.420 112.400,381.200 112.400 C 380.980 112.400,380.800 112.040,380.800 111.600 C 380.800 111.160,380.620 110.800,380.400 110.800 C 380.180 110.800,380.000 110.440,380.000 110.000 C 380.000 109.560,379.820 109.200,379.600 109.200 C 379.380 109.200,379.200 108.840,379.200 108.400 C 379.200 107.960,379.020 107.600,378.800 107.600 C 378.580 107.600,378.400 107.280,378.400 106.888 C 378.400 106.497,378.040 105.917,377.600 105.600 C 377.160 105.283,376.800 104.703,376.800 104.312 C 376.800 103.920,376.620 103.600,376.400 103.600 C 376.180 103.600,376.000 103.240,376.000 102.800 C 376.000 102.360,375.820 102.000,375.600 102.000 C 375.380 102.000,375.200 101.758,375.200 101.461 C 375.200 100.901,374.040 98.349,373.626 98.000 C 373.496 97.890,372.958 96.945,372.432 95.900 C 371.905 94.855,371.323 94.000,371.137 94.000 C 370.952 94.000,370.800 93.730,370.800 93.400 C 370.800 93.070,370.620 92.800,370.400 92.800 C 370.180 92.800,370.000 92.564,370.000 92.275 C 370.000 91.987,369.640 91.364,369.200 90.892 C 368.760 90.420,368.400 89.796,368.400 89.505 C 368.400 89.214,368.040 88.717,367.600 88.400 C 367.160 88.083,366.800 87.543,366.800 87.200 C 366.800 86.857,366.440 86.317,366.000 86.000 C 365.560 85.683,365.200 85.220,365.200 84.971 C 365.200 84.722,364.660 83.954,364.000 83.263 C 363.340 82.572,362.800 81.775,362.800 81.492 C 362.800 81.209,362.440 80.717,362.000 80.400 C 361.560 80.083,361.200 79.593,361.200 79.312 C 361.200 79.030,361.020 78.800,360.800 78.800 C 360.580 78.800,360.400 78.596,360.400 78.347 C 360.400 78.098,360.083 77.603,359.696 77.247 C 359.308 76.891,358.462 75.880,357.816 75.000 C 357.170 74.120,356.317 73.109,355.921 72.753 C 355.524 72.397,355.200 71.921,355.200 71.694 C 355.200 71.467,354.300 70.362,353.200 69.239 C 352.100 68.115,351.200 67.041,351.200 66.852 C 351.200 66.662,349.408 64.728,347.218 62.554 C 342.239 57.610,342.299 57.670,337.050 52.382 C 334.658 49.972,332.547 48.000,332.360 48.000 C 332.172 48.000,330.996 47.010,329.747 45.800 C 328.498 44.590,327.351 43.600,327.199 43.600 C 326.956 43.600,326.314 43.123,324.517 41.607 C 324.251 41.383,323.918 41.200,323.777 41.200 C 323.636 41.200,323.017 40.660,322.400 40.000 C 321.783 39.340,321.081 38.800,320.840 38.800 C 320.598 38.800,320.400 38.620,320.400 38.400 C 320.400 38.180,320.170 38.000,319.888 38.000 C 319.607 38.000,319.117 37.640,318.800 37.200 C 318.483 36.760,317.975 36.400,317.672 36.400 C 317.369 36.400,316.617 35.860,316.000 35.200 C 315.383 34.540,314.631 34.000,314.328 34.000 C 314.025 34.000,313.517 33.640,313.200 33.200 C 312.883 32.760,312.343 32.400,312.000 32.400 C 311.657 32.400,311.117 32.040,310.800 31.600 C 310.483 31.160,309.969 30.800,309.659 30.800 C 309.348 30.800,308.803 30.471,308.447 30.070 C 308.091 29.668,307.215 29.084,306.500 28.772 C 305.785 28.460,305.200 28.090,305.200 27.949 C 305.200 27.809,304.213 27.211,303.008 26.621 C 301.802 26.031,300.711 25.380,300.584 25.174 C 300.457 24.968,300.003 24.800,299.576 24.800 C 299.149 24.800,298.800 24.620,298.800 24.400 C 298.800 24.180,298.440 24.000,298.000 24.000 C 297.560 24.000,297.200 23.820,297.200 23.600 C 297.200 23.380,296.880 23.200,296.488 23.200 C 296.097 23.200,295.517 22.840,295.200 22.400 C 294.883 21.960,294.303 21.600,293.912 21.600 C 293.520 21.600,293.200 21.420,293.200 21.200 C 293.200 20.980,292.840 20.800,292.400 20.800 C 291.960 20.800,291.600 20.620,291.600 20.400 C 291.600 20.180,291.255 20.000,290.833 20.000 C 290.412 20.000,290.007 19.865,289.933 19.700 C 289.713 19.205,284.746 16.800,283.944 16.800 C 283.535 16.800,283.200 16.620,283.200 16.400 C 283.200 16.180,282.840 16.000,282.400 16.000 C 281.960 16.000,281.600 15.820,281.600 15.600 C 281.600 15.380,281.240 15.200,280.800 15.200 C 280.360 15.200,280.000 15.020,280.000 14.800 C 280.000 14.580,279.651 14.400,279.224 14.400 C 278.797 14.400,278.336 14.220,278.200 14.000 C 278.064 13.780,277.513 13.600,276.976 13.600 C 276.439 13.600,276.000 13.420,276.000 13.200 C 276.000 12.980,275.728 12.800,275.395 12.800 C 275.062 12.800,274.432 12.620,273.995 12.400 C 273.558 12.180,272.842 11.820,272.405 11.600 C 271.968 11.380,271.263 11.200,270.839 11.200 C 270.414 11.200,270.007 11.059,269.933 10.887 C 269.747 10.448,263.354 8.400,262.172 8.400 C 261.638 8.400,261.200 8.220,261.200 8.000 C 261.200 7.780,260.660 7.600,260.000 7.600 C 259.340 7.600,258.800 7.420,258.800 7.200 C 258.800 6.980,258.170 6.800,257.400 6.800 C 256.630 6.800,256.000 6.620,256.000 6.400 C 256.000 6.180,255.370 6.000,254.600 6.000 C 253.830 6.000,253.200 5.820,253.200 5.600 C 253.200 5.380,252.570 5.200,251.800 5.200 C 251.030 5.200,250.400 5.020,250.400 4.800 C 250.400 4.580,249.680 4.400,248.800 4.400 C 247.920 4.400,247.200 4.220,247.200 4.000 C 247.200 3.780,246.300 3.600,245.200 3.600 C 244.100 3.600,243.200 3.420,243.200 3.200 C 243.200 2.980,242.480 2.800,241.600 2.800 C 240.720 2.800,240.000 2.620,240.000 2.400 C 240.000 2.180,239.010 2.000,237.800 2.000 C 236.590 2.000,235.600 1.820,235.600 1.600 C 235.600 1.378,234.544 1.200,233.233 1.200 C 231.695 1.200,230.808 1.025,230.700 0.700 C 230.539 0.216,180.095 -0.145,172.100 0.281 M301.255 52.248 C 302.055 56.182,304.107 66.240,305.814 74.600 C 307.521 82.960,309.052 90.520,309.215 91.400 C 309.379 92.280,309.732 93.990,310.000 95.200 C 310.268 96.410,310.627 98.120,310.796 99.000 C 310.966 99.880,311.687 103.390,312.398 106.800 C 313.110 110.210,313.850 113.810,314.044 114.800 C 314.237 115.790,314.551 117.359,314.741 118.286 C 315.168 120.362,315.298 120.119,309.814 127.498 C 302.926 136.765,295.651 146.605,292.181 151.346 C 289.051 155.622,281.252 166.184,272.600 177.861 C 266.813 185.673,265.200 187.964,265.200 188.376 C 265.200 188.785,267.070 189.972,275.000 194.599 C 278.300 196.525,281.671 198.528,282.491 199.050 C 283.312 199.573,284.094 200.000,284.230 200.000 C 284.365 200.000,284.954 200.339,285.538 200.753 C 286.122 201.167,287.230 201.863,288.000 202.299 C 291.114 204.063,305.427 212.507,305.800 212.800 C 306.020 212.973,306.875 213.494,307.700 213.957 C 311.633 216.167,312.271 216.544,313.262 217.247 C 313.846 217.661,314.435 218.000,314.570 218.000 C 314.706 218.000,315.488 218.426,316.309 218.947 C 317.129 219.468,322.030 222.374,327.200 225.405 C 332.370 228.436,336.975 231.295,337.434 231.758 C 338.198 232.529,339.706 239.028,342.039 251.600 C 342.223 252.590,342.928 256.010,343.605 259.200 C 344.283 262.390,345.009 265.900,345.218 267.000 C 345.427 268.100,345.779 269.810,346.000 270.800 C 346.221 271.790,346.598 273.590,346.838 274.800 C 347.078 276.010,347.416 277.720,347.591 278.600 C 347.765 279.480,348.309 282.090,348.800 284.400 C 349.689 288.579,349.976 289.986,350.720 293.800 C 350.934 294.900,351.611 298.264,352.224 301.275 C 353.710 308.572,353.257 309.292,348.908 306.539 C 345.647 304.475,337.543 299.282,331.200 295.192 C 328.230 293.277,322.200 289.412,317.800 286.603 C 306.537 279.411,295.026 272.030,289.400 268.393 C 286.760 266.687,281.000 262.992,276.600 260.182 C 272.200 257.372,266.170 253.509,263.200 251.597 C 260.230 249.686,254.200 245.821,249.800 243.009 C 245.400 240.197,239.640 236.482,237.000 234.754 C 234.360 233.026,231.259 231.070,230.108 230.407 C 228.831 229.671,227.933 228.851,227.802 228.301 C 227.589 227.400,222.572 202.822,221.985 199.800 C 221.243 195.984,220.776 193.682,220.400 192.000 C 220.179 191.010,219.802 189.210,219.562 188.000 C 219.322 186.790,218.984 185.080,218.809 184.200 C 218.635 183.320,218.091 180.710,217.600 178.400 C 216.559 173.504,216.226 171.842,215.657 168.694 C 215.428 167.426,215.136 166.219,215.008 166.013 C 214.799 165.674,217.905 160.936,227.734 146.600 C 229.544 143.960,233.885 137.570,237.380 132.400 C 240.876 127.230,244.549 121.830,245.543 120.400 C 246.537 118.970,249.429 114.740,251.968 111.000 C 254.508 107.260,258.569 101.282,260.993 97.716 C 263.417 94.150,269.472 85.240,274.450 77.916 C 279.427 70.592,284.557 63.051,285.850 61.158 C 287.142 59.265,290.153 54.855,292.540 51.358 C 299.128 41.705,299.110 41.703,301.255 52.248 M54.338 96.945 C 56.902 98.564,61.880 101.742,65.400 104.007 C 71.409 107.873,75.473 110.482,94.800 122.874 C 109.930 132.575,115.099 135.897,124.893 142.217 C 130.334 145.728,135.113 148.780,135.513 149.000 C 135.913 149.220,138.482 150.856,141.220 152.636 C 143.959 154.415,149.800 158.177,154.200 160.995 C 158.600 163.814,164.556 167.647,167.436 169.514 L 172.673 172.908 174.384 181.354 C 175.325 185.999,176.253 190.610,176.445 191.600 C 176.638 192.590,176.977 194.210,177.199 195.200 C 177.421 196.190,177.798 197.990,178.038 199.200 C 178.278 200.410,178.616 202.120,178.791 203.000 C 178.965 203.880,179.509 206.490,180.000 208.800 C 180.887 212.973,181.172 214.366,181.920 218.200 C 182.135 219.300,182.711 222.090,183.202 224.400 C 184.239 229.287,184.565 230.918,185.163 234.200 L 185.600 236.600 183.536 239.600 C 181.247 242.925,174.407 253.028,157.401 278.200 C 151.158 287.440,143.245 299.140,139.816 304.200 C 123.000 329.014,111.540 345.973,107.861 351.490 C 102.927 358.888,101.568 359.563,100.761 355.015 C 100.499 353.540,100.066 351.309,99.207 347.000 C 99.031 346.120,98.668 344.410,98.400 343.200 C 98.132 341.990,97.775 340.280,97.606 339.400 C 97.438 338.520,96.100 331.950,94.634 324.800 C 89.887 301.653,89.513 299.826,89.156 298.000 C 88.963 297.010,88.623 295.390,88.401 294.400 C 88.179 293.410,87.802 291.610,87.562 290.400 C 87.322 289.190,86.978 287.480,86.798 286.600 C 85.796 281.714,84.806 283.510,99.400 263.747 C 100.720 261.959,104.217 257.190,107.172 253.148 C 110.126 249.107,113.735 244.180,115.192 242.200 C 116.649 240.220,119.272 236.642,121.021 234.250 C 122.769 231.857,125.550 228.073,127.200 225.841 C 128.850 223.608,131.355 220.166,132.767 218.191 C 134.178 216.216,135.492 214.391,135.685 214.137 C 135.929 213.815,134.286 212.640,130.319 210.299 C 127.173 208.443,122.354 205.592,119.609 203.963 C 116.864 202.333,114.434 200.928,114.209 200.841 C 113.984 200.753,113.048 200.168,112.128 199.541 C 111.208 198.913,110.349 198.400,110.219 198.400 C 110.089 198.400,109.312 197.974,108.491 197.454 C 107.671 196.933,104.300 194.924,101.000 192.989 C 97.700 191.054,93.668 188.672,92.040 187.695 C 90.413 186.719,88.523 185.602,87.840 185.214 C 85.503 183.886,81.399 181.478,78.440 179.699 C 76.813 178.720,74.923 177.602,74.240 177.214 C 70.125 174.873,63.748 171.080,63.454 170.799 C 62.993 170.358,59.121 152.346,55.586 134.200 C 54.811 130.225,54.373 128.070,53.999 126.400 C 53.777 125.410,53.437 123.790,53.244 122.800 C 53.050 121.810,52.310 118.210,51.598 114.800 C 50.887 111.390,50.169 107.880,50.003 107.000 C 49.837 106.120,49.221 103.088,48.633 100.262 C 47.074 92.766,47.412 92.569,54.338 96.945 " stroke="none" fill="#14343c" fill-rule="evenodd"></path></g></svg>