<?xml version="1.0" standalone="no"?>
<!DOCTYPE svg PUBLIC "-//W3C//DTD SVG 20010904//EN"
 "http://www.w3.org/TR/2001/REC-SVG-20010904/DTD/svg10.dtd">
<svg version="1.0" xmlns="http://www.w3.org/2000/svg"
 width="512.000000pt" height="512.000000pt" viewBox="0 0 512.000000 512.000000"
 preserveAspectRatio="xMidYMid meet">
<metadata>
Created by potrace 1.14, written by Peter Selinger 2001-2017
</metadata>
<g transform="translate(0.000000,512.000000) scale(0.100000,-0.100000)"
fill="#000000" stroke="none">
<path d="M2195 5104 c-434 -67 -836 -235 -1182 -496 -208 -156 -439 -404 -594
-638 -81 -121 -212 -382 -263 -521 -51 -140 -103 -344 -128 -504 -31 -201 -31
-559 0 -760 43 -278 115 -503 242 -760 135 -273 293 -489 517 -705 401 -388
883 -620 1458 -702 118 -17 512 -17 630 0 290 41 547 118 791 236 266 129 456
262 667 466 224 216 382 432 517 705 92 187 136 301 185 486 61 231 79 379 79
654 0 275 -18 423 -79 654 -49 185 -93 299 -185 486 -135 273 -293 489 -517
705 -211 205 -402 338 -667 466 -239 115 -482 189 -747 228 -138 21 -592 21
-724 0z m1739 -1038 l99 -484 -39 -54 c-21 -29 -166 -226 -322 -437 -156 -211
-282 -384 -280 -386 2 -1 208 -123 458 -270 250 -148 460 -273 467 -279 10
-10 203 -923 203 -961 0 -8 -6 -15 -14 -15 -10 0 -1542 972 -1585 1006 -2 2
-41 186 -86 410 l-83 408 526 773 c326 479 532 773 542 773 13 0 34 -90 114
-484z m-2514 -651 c426 -273 778 -500 782 -504 5 -4 45 -189 91 -411 l84 -405
-162 -240 c-784 -1160 -888 -1310 -902 -1310 -13 0 -33 82 -109 453 -51 249
-95 466 -99 481 -5 25 31 78 315 466 l321 439 -38 23 c-21 13 -230 137 -465
275 -236 139 -430 259 -433 268 -18 60 -194 953 -189 961 3 6 11 8 18 6 6 -3
360 -228 786 -502z"/>
</g>
</svg>
